<svg id="レイヤー_1" data-name="レイヤー 1" xmlns="http://www.w3.org/2000/svg" viewBox="0 0 109.87 83.14"><defs><style>.cls-1{fill:#729d39;}.cls-2,.cls-4{font-size:25.25px;font-family:Oswald-Regular, Oswald;}.cls-2,.cls-3,.cls-4{fill:#fbfad3;}.cls-3,.cls-4{stroke:#fbfad3;stroke-miterlimit:10;}.cls-3{stroke-width:0.25px;}.cls-4{stroke-width:0.5px;}</style></defs><title>HONNEアイコン</title><polygon class="cls-1" points="95.2 30.97 0 0 0 83.14 95.2 52.16 109.87 62.76 109.87 20.38 95.2 30.97"/><text class="cls-2" transform="translate(45.11 52.78)">NNE</text><path class="cls-3" d="M131.2,154.7a10.84,10.84,0,0,0-5.54,20.16v3.84a26.11,26.11,0,0,0,10.64-3.6,9.68,9.68,0,0,0,1.23-.76,10.84,10.84,0,0,0-6.33-19.64Zm7.6,14.81a8.57,8.57,0,0,1-2.59,3,8.27,8.27,0,0,1-1,.61l0,0,0,0a26,26,0,0,1-6.7,2.75l-.54.13v-2.47l-1.1-.66a8.56,8.56,0,0,1-1.68-13.43,8.58,8.58,0,0,1,14.64,6.06A8.42,8.42,0,0,1,138.8,169.51Z" transform="translate(-98.38 -124.64)"/><path class="cls-3" d="M128.33,165.55a.92.92,0,1,0-.92-.92A.92.92,0,0,0,128.33,165.55Z" transform="translate(-98.38 -124.64)"/><path class="cls-3" d="M134.26,165.55a.92.92,0,1,0-.92-.92A.92.92,0,0,0,134.26,165.55Z" transform="translate(-98.38 -124.64)"/><path class="cls-3" d="M131.2,170.26a5.33,5.33,0,0,0,3.14-1,5.27,5.27,0,0,0,1.28-1.3h-8.84A5.37,5.37,0,0,0,131.2,170.26Z" transform="translate(-98.38 -124.64)"/><text class="cls-4" transform="translate(5.44 52.78)">H</text></svg>